# xmcd
#
# Track frame offsets: 
#        150
#        24749
#        38024
#        48149
#        65548
#        80772
#        106196
#        123146
#        137321
#
# Disc length: 2212 seconds
#
# Revision: 0
# Processed by: cddbd v1.5.2PL0 Copyright (c) Steve Scherf et al.
# Submitted via: ExactAudioCopy v0.95a5
#
DISCID=6908a209
DTITLE=Richard Greene and the Brothers Barton - SHUFFLIN' 
DYEAR=2005
DGENRE=Bluegrass
TTITLE0=Sinai Summit
TTITLE1=Sarah's Waltz
TTITLE2=Yearlings in the Canebreak
TTITLE3=Tipioshi Breakdown
TTITLE4=Bankhead Blues
TTITLE5=Ninth of June Serenade
TTITLE6=Chelsey's Dream
TTITLE7=Steeley Rag
TTITLE8=Shufflin'
EXTD=
EXTT0=
EXTT1=
EXTT2=
EXTT3=
EXTT4=
EXTT5=
EXTT6=
EXTT7=
EXTT8=
PLAYORDER=
